<?xml version="1.0" encoding="UTF-8"?>
<svg xmlns="http://www.w3.org/2000/svg" xmlns:xlink="http://www.w3.org/1999/xlink" width="64" height="64" viewBox="0 0 64 64" version="1.1">
<g id="surface1">
<path style=" stroke:none;fill-rule:nonzero;fill:rgb(27.843137%,69.019608%,82.745098%);fill-opacity:1;" d="M 64 32 C 64 49.671875 49.671875 64 32 64 C 14.328125 64 0 49.671875 0 32 C 0 14.328125 14.328125 0 32 0 C 49.671875 0 64 14.328125 64 32 Z M 64 32 "/>
<path style=" stroke:none;fill-rule:nonzero;fill:rgb(19.607843%,59.607843%,72.941176%);fill-opacity:1;" d="M 4.265625 32 C 4.265625 15.042969 17.457031 1.171875 34.132812 0.0742188 C 33.429688 0.0273438 32.71875 0 32 0 C 14.328125 0 0 14.328125 0 32 C 0 49.671875 14.328125 64 32 64 C 32.71875 64 33.429688 63.972656 34.132812 63.925781 C 17.457031 62.828125 4.265625 48.957031 4.265625 32 Z M 4.265625 32 "/>
<path style=" stroke:none;fill-rule:nonzero;fill:rgb(89.803922%,89.803922%,89.803922%);fill-opacity:1;" d="M 47.53125 13.632812 C 47.222656 13.421875 46.824219 13.386719 46.484375 13.546875 L 12.097656 29.554688 C 11.492188 29.835938 11.109375 30.449219 11.125 31.117188 C 11.140625 31.769531 11.535156 32.355469 12.132812 32.617188 L 43.835938 46.425781 C 44.894531 46.90625 46.140625 46.148438 46.210938 44.992188 L 48 14.578125 C 48.019531 14.203125 47.84375 13.84375 47.53125 13.632812 Z M 47.53125 13.632812 "/>
<path style=" stroke:none;fill-rule:nonzero;fill:rgb(80%,80%,80%);fill-opacity:1;" d="M 21.453125 36.675781 L 23.597656 51 L 47.394531 13.554688 Z M 21.453125 36.675781 "/>
<path style=" stroke:none;fill-rule:nonzero;fill:rgb(100%,100%,100%);fill-opacity:1;" d="M 46.484375 13.546875 L 12.097656 29.554688 C 11.503906 29.828125 11.117188 30.445312 11.125 31.097656 C 11.132812 31.75 11.535156 32.355469 12.132812 32.617188 L 21.453125 36.675781 L 47.394531 13.554688 C 47.109375 13.417969 46.773438 13.410156 46.484375 13.546875 Z M 46.484375 13.546875 "/>
<path style=" stroke:none;fill-rule:nonzero;fill:rgb(89.803922%,89.803922%,89.803922%);fill-opacity:1;" d="M 26.425781 38.84375 L 23.597656 51 L 47.394531 13.554688 Z M 26.425781 38.84375 "/>
<path style=" stroke:none;fill-rule:nonzero;fill:rgb(100%,100%,100%);fill-opacity:1;" d="M 47.53125 13.632812 C 47.488281 13.601562 47.441406 13.578125 47.394531 13.554688 L 26.425781 38.84375 L 43.835938 46.425781 C 44.894531 46.90625 46.140625 46.148438 46.207031 44.992188 L 48 14.578125 C 48.019531 14.203125 47.84375 13.84375 47.53125 13.632812 Z M 47.53125 13.632812 "/>
</g>
</svg>
